<?xml version="1.0" standalone="no"?>
<!DOCTYPE svg PUBLIC "-//W3C//DTD SVG 20010904//EN"
 "http://www.w3.org/TR/2001/REC-SVG-20010904/DTD/svg10.dtd">
<svg version="1.0" xmlns="http://www.w3.org/2000/svg"
 width="512.000000pt" height="384.000000pt" viewBox="0 0 512.000000 384.000000"
 preserveAspectRatio="xMidYMid meet">

<g transform="translate(0.000000,384.000000) scale(0.100000,-0.100000)"
fill="#000000" stroke="none">
<path d="M262 3833 c-116 -2 -181 -7 -177 -13 4 -6 -12 -10 -39 -10 -42 0 -46
-2 -46 -23 l0 -24 234 -6 c128 -4 247 -10 265 -13 38 -8 40 -16 69 -233 12
-84 23 -156 27 -159 3 -3 92 -8 199 -10 l194 -5 -4 24 c-2 13 -10 78 -19 144
-8 66 -22 168 -31 228 l-17 107 -236 -2 c-130 -2 -318 -4 -419 -5z m345 -65
c-3 -8 -6 -5 -6 6 -1 11 2 17 5 13 3 -3 4 -12 1 -19z m-1 -55 c8 -3 14 -9 14
-14 0 -6 -9 -5 -20 1 -13 7 -20 20 -19 38 2 24 2 25 6 4 3 -13 11 -26 19 -29z
m15 -125 c-9 -32 -9 -31 -10 17 0 38 2 46 10 33 6 -11 6 -29 0 -50z m16 -100
c-3 -8 -6 -5 -6 6 -1 11 2 17 5 13 3 -3 4 -12 1 -19z"/>
<path d="M955 3768 c10 -122 36 -382 41 -405 4 -20 10 -23 57 -23 29 0 78 -9
110 -20 31 -11 74 -20 95 -20 34 0 38 3 40 28 1 15 9 32 19 39 14 11 15 27 4
170 -15 207 -16 193 17 194 20 1 22 2 7 6 -36 9 -38 21 -4 19 62 -5 66 -7 44
-16 -23 -10 -19 -11 78 -13 69 -2 92 8 35 16 -18 2 18 4 80 5 93 0 112 -3 108
-14 -5 -13 5 -18 31 -15 14 2 27 -17 28 -42 2 -19 -35 -50 -73 -62 -31 -9 -90
-62 -108 -96 -22 -44 -17 -44 19 -1 17 22 43 46 57 54 14 7 28 17 32 23 5 6 8
4 8 -5 0 -11 3 -11 12 -2 7 7 16 12 21 12 4 0 -14 -22 -42 -49 -57 -55 -69
-89 -52 -138 10 -27 10 -37 -1 -50 -9 -12 -10 -15 0 -9 16 9 28 -20 15 -37
-12 -14 -24 -47 -18 -47 2 0 11 7 20 16 12 13 19 14 30 4 21 -17 19 -35 -7
-54 -13 -9 -16 -14 -8 -10 8 4 23 14 32 21 15 13 20 11 46 -18 27 -30 28 -35
13 -47 -15 -13 -15 -13 1 -8 20 6 15 -18 -10 -46 -13 -15 -12 -17 7 -15 12 1
21 6 22 12 0 5 5 -1 10 -14 5 -14 7 -31 5 -38 -3 -7 -1 -13 4 -13 6 0 10 -8
10 -18 0 -18 -87 -92 -112 -96 -7 -1 -19 -5 -25 -9 -7 -5 -36 -7 -65 -6 -29 1
-74 -2 -100 -6 -30 -4 -48 -3 -48 3 0 6 -35 24 -77 40 -43 17 -86 33 -96 37
-14 6 -10 -4 14 -39 18 -25 36 -46 40 -46 5 0 11 -15 14 -34 4 -21 16 -38 31
-47 24 -12 28 -36 5 -32 -6 2 -11 -3 -11 -10 0 -8 -3 -8 -9 2 -16 25 -39 21
-46 -8 -4 -14 -9 -62 -11 -106 -2 -44 -9 -104 -14 -134 -6 -30 -10 -60 -10
-66 0 -13 77 -7 86 6 8 14 34 -17 34 -40 0 -24 -26 -28 -53 -7 -9 7 -27 11
-40 9 -19 -4 -23 -10 -19 -34 4 -26 1 -29 -22 -29 -14 0 -26 -4 -26 -10 0 -19
95 -11 120 10 15 13 37 20 62 20 44 0 57 18 40 54 -6 14 -23 26 -44 31 -32 7
-32 8 -8 14 19 5 22 9 11 16 -12 7 -12 9 2 14 15 6 15 9 2 34 -13 26 -13 27
12 27 16 0 27 7 30 18 3 13 13 17 34 16 16 -1 29 3 29 8 0 6 6 8 14 5 8 -3 16
-1 18 4 2 5 17 11 33 12 17 1 33 6 37 12 14 19 18 -3 5 -28 -12 -23 -14 -24
-25 -9 -9 14 -10 11 -7 -18 2 -19 4 -46 4 -60 1 -20 3 -22 11 -10 5 8 10 25
10 38 0 12 5 22 10 22 6 0 10 10 11 23 1 12 7 -1 14 -29 7 -28 16 -58 20 -65
5 -8 -1 -6 -13 4 -12 11 -18 26 -15 35 4 15 3 15 -6 2 -18 -25 -10 -140 9
-140 5 0 14 16 20 35 6 19 15 35 20 35 5 0 12 9 15 20 4 11 10 18 15 15 5 -3
12 6 16 20 3 14 11 24 18 22 6 -2 16 6 22 17 6 12 16 20 23 18 6 -1 14 11 17
28 4 19 13 30 23 30 9 0 22 13 29 29 9 19 18 28 28 24 9 -3 14 2 14 17 0 13 8
24 19 27 11 3 25 18 31 34 7 16 18 29 25 29 7 0 15 13 18 29 6 26 12 30 52 36
25 4 45 11 45 16 0 5 11 9 24 9 15 0 26 7 29 20 3 11 12 20 21 20 12 0 16 10
16 38 -1 36 -21 78 -33 66 -3 -3 -1 11 3 32 5 21 7 41 5 45 -3 3 7 4 20 1 20
-3 24 -1 19 11 -10 26 6 41 22 20 12 -17 13 -16 14 9 0 37 11 63 20 48 4 -6
10 7 15 32 l7 43 14 -35 13 -35 -5 47 c-8 63 6 83 23 32 l12 -39 -4 35 c-15
124 -16 154 -6 140 6 -8 11 -25 11 -37 0 -12 4 -24 9 -27 8 -5 6 47 -4 114 -3
23 -2 24 11 5 13 -17 14 -16 14 19 0 30 3 37 15 32 8 -3 15 0 15 7 1 7 6 5 14
-5 10 -13 15 -15 24 -6 7 7 12 8 12 2 0 -5 9 -10 20 -10 11 0 20 3 20 7 0 3
11 5 25 4 23 -3 25 0 25 36 0 32 -4 39 -19 39 -11 0 -22 6 -24 13 -3 6 -6 3
-6 -8 -1 -15 -3 -17 -10 -7 -4 8 -12 13 -17 13 -5 -1 -10 11 -11 26 -1 15 1
20 3 11 3 -10 10 -18 16 -18 6 0 7 7 3 18 -9 19 -9 28 -5 87 2 22 8 46 13 53
8 9 -72 12 -392 12 l-401 0 0 -25 c0 -28 -21 -33 -40 -10 -7 8 -16 15 -21 15
-5 0 -6 -7 -3 -15 9 -21 -23 -19 -35 3 -6 9 -11 11 -11 5 0 -9 -21 -13 -71
-13 -66 0 -70 1 -64 20 7 21 -8 26 -40 14 -13 -5 -14 -8 -3 -15 8 -5 -9 -9
-44 -9 -45 0 -58 3 -58 15 0 13 -26 15 -176 15 l-175 0 6 -72z m112 -160 c-3
-8 -6 -5 -6 6 -1 11 2 17 5 13 3 -3 4 -12 1 -19z m587 -130 c-3 -13 -10 -30
-15 -38 -7 -12 -8 -10 -9 7 0 28 10 53 22 53 5 0 6 -10 2 -22z m526 -68 c0
-10 -4 -21 -8 -24 -5 -3 -9 8 -9 24 0 16 4 27 9 24 4 -3 8 -14 8 -24z m-370
-36 c0 -8 -4 -12 -10 -9 -5 3 -10 13 -10 21 0 8 5 12 10 9 6 -3 10 -13 10 -21z
m327 -276 c-3 -8 -6 -5 -6 6 -1 11 2 17 5 13 3 -3 4 -12 1 -19z m23 -75 c-1
-12 -29 -59 -30 -49 0 5 -7 3 -15 -4 -22 -18 -18 3 6 34 20 25 39 34 39 19z
m-327 -218 c-3 -9 -8 -14 -10 -11 -3 3 -2 9 2 15 9 16 15 13 8 -4z m-37 -42
c-10 -10 -19 5 -10 18 6 11 8 11 12 0 2 -7 1 -15 -2 -18z m-423 -33 l-6 -24
-8 22 c-5 12 -6 29 -2 38 9 25 24 -7 16 -36z m466 8 c1 -5 -3 -8 -9 -8 -5 0
-10 12 -9 28 0 24 1 25 9 7 5 -11 9 -23 9 -27z m-109 -14 c0 -8 -5 -12 -10 -9
-6 4 -8 11 -5 16 9 14 15 11 15 -7z m27 -26 c-3 -7 -5 -2 -5 12 0 14 2 19 5
13 2 -7 2 -19 0 -25z m-433 -63 c-4 -8 -10 -12 -15 -9 -11 6 -2 24 11 24 5 0
7 -7 4 -15z m54 1 c7 -4 24 -5 37 -2 27 7 44 -9 20 -18 -19 -7 -105 4 -105 14
0 19 23 22 48 6z"/>
<path d="M2524 3825 c3 -10 13 -68 21 -129 23 -171 45 -252 37 -133 -9 117
-37 270 -52 275 -9 3 -11 -1 -6 -13z"/>
<path d="M2855 3804 c22 -19 66 -54 97 -77 56 -41 76 -70 105 -156 18 -52 45
-95 97 -151 37 -40 45 -60 24 -60 -6 0 -4 -6 7 -13 14 -11 17 -21 12 -48 -4
-21 -4 -29 2 -20 6 9 11 10 15 2 4 -6 4 -11 -1 -11 -4 0 0 -5 10 -11 14 -8 17
-18 12 -37 -6 -26 -6 -26 10 -7 16 20 16 20 12 -3 -4 -15 0 -25 9 -29 8 -3 14
-15 14 -27 0 -17 2 -18 10 -6 16 25 22 3 10 -35 -7 -20 -9 -39 -6 -42 3 -4 6
0 6 8 0 9 7 24 16 35 15 18 15 18 10 -11 -2 -16 -8 -39 -11 -50 -4 -12 2 -8
14 10 28 40 27 18 -2 -47 -13 -29 -27 -66 -31 -83 -4 -16 -24 -57 -44 -90 -36
-58 -37 -63 -37 -160 0 -63 -5 -109 -14 -123 -7 -13 -11 -26 -8 -28 2 -3 12
14 22 38 14 37 18 40 27 25 7 -13 5 -30 -6 -58 -22 -54 -19 -62 5 -16 16 31
23 36 34 27 11 -9 11 -17 -1 -47 -19 -44 -11 -55 10 -14 18 34 46 33 46 -1 0
-17 3 -18 15 -8 18 15 44 -2 46 -29 0 -9 3 -11 5 -4 8 17 54 -6 54 -26 0 -13
8 -16 40 -13 27 3 40 0 40 -8 0 -8 10 -11 28 -7 15 2 36 2 47 -2 10 -4 39 -2
62 5 41 13 43 12 44 -9 1 -17 2 -18 6 -4 2 9 11 17 18 17 7 0 15 5 17 10 2 6
16 12 32 14 16 2 39 13 52 25 13 12 29 21 36 20 26 -3 38 1 38 15 0 8 9 24 20
37 l19 24 1 -23 c0 -35 17 -17 25 27 3 22 12 47 20 57 11 16 14 10 20 -51 4
-39 11 -77 15 -85 5 -8 6 13 3 46 -7 75 5 189 17 159 4 -11 15 -69 25 -129 9
-60 21 -118 25 -130 13 -32 12 -6 -4 77 -24 124 -30 213 -16 222 8 5 11 4 6
-3 -3 -5 -2 -12 4 -14 8 -3 27 -78 43 -173 10 -54 49 -250 53 -264 3 -8 6 -12
9 -10 2 3 -11 81 -30 174 -18 94 -36 193 -40 220 -3 28 -8 60 -11 73 -4 20 -2
22 14 13 13 -7 22 -29 30 -73 6 -35 13 -72 16 -83 2 -11 14 -62 25 -114 11
-52 23 -96 26 -99 9 -9 6 16 -10 81 -17 74 -45 219 -45 235 0 7 6 12 13 12 13
0 20 -26 63 -218 9 -40 18 -71 20 -69 3 2 -4 47 -15 98 -19 87 -33 189 -26
189 6 0 38 -76 41 -95 5 -46 26 -148 34 -168 12 -29 12 -1 1 43 -5 19 -12 58
-15 85 -6 46 -5 48 7 25 8 -14 20 -59 27 -100 16 -85 26 -73 12 14 -7 41 -6
54 2 46 6 -6 11 -16 12 -23 0 -7 2 -28 4 -47 l3 -35 6 40 c4 24 11 39 19 37 6
-1 12 2 12 8 0 5 -4 10 -9 10 -5 0 -12 8 -15 17 -6 14 -3 14 16 -3 13 -10 26
-23 29 -28 4 -4 15 0 26 10 11 11 28 24 39 30 10 6 22 24 25 40 4 16 7 23 8
17 2 -20 22 -15 28 6 4 17 89 68 105 63 4 -1 23 7 42 17 34 19 34 19 39 -1 5
-16 12 -19 31 -16 15 3 24 1 23 -6 -1 -6 8 -12 21 -14 12 -2 22 -8 22 -13 0
-5 -23 0 -51 12 -29 11 -53 18 -56 16 -4 -5 104 -47 122 -47 7 0 15 4 17 10 5
16 53 -15 52 -33 -2 -21 9 -22 25 -3 14 17 51 28 51 14 0 -5 -5 -29 -11 -53
-9 -35 -16 -44 -39 -49 -17 -3 -31 -14 -35 -26 -8 -25 -13 -25 -100 -1 -39 10
-96 24 -128 30 -42 9 -57 17 -53 26 11 30 18 87 10 83 -48 -22 -63 -34 -68
-54 -4 -15 -14 -24 -25 -24 -25 0 -37 -31 -16 -42 8 -5 15 -22 15 -37 0 -28 1
-28 170 -72 94 -24 166 -45 160 -47 -17 -6 0 -22 23 -22 18 0 19 2 7 11 -11 7
-6 8 19 4 23 -5 36 -3 42 6 7 11 9 10 9 -3 0 -30 16 -20 18 11 1 16 8 47 16
69 8 21 17 70 21 108 4 38 10 74 13 79 16 25 10 34 -16 24 -26 -9 -26 -8 -7 6
32 25 1 42 -100 56 -138 18 -164 26 -162 49 1 12 7 18 13 16 7 -3 15 1 17 8 4
10 -1 12 -16 9 -14 -3 -18 -2 -10 4 9 6 6 16 -13 38 -15 17 -30 29 -34 28 -4
-1 -11 9 -14 23 -4 14 -10 22 -15 19 -21 -12 -57 100 -76 240 l-14 100 4 -97
5 -97 -47 26 c-61 33 -60 33 -35 33 11 0 28 -7 36 -16 14 -14 16 -14 16 0 0 9
-29 29 -70 50 -58 28 -78 33 -112 29 -24 -3 -39 -2 -35 3 4 5 27 10 50 11 32
2 57 -5 109 -33 67 -35 68 -35 68 -12 0 13 -4 28 -8 34 -15 22 -119 64 -177
70 -33 4 -54 9 -47 12 6 2 10 8 6 13 -3 5 0 9 5 9 6 0 11 -4 11 -8 0 -5 13 -9
29 -9 20 0 28 4 24 14 -3 7 -9 10 -14 7 -5 -3 -9 0 -9 6 0 7 -13 10 -32 8 -20
-2 -33 2 -36 11 -3 8 0 11 7 7 6 -4 21 0 33 8 18 13 19 16 5 16 -9 0 -17 -4
-17 -10 0 -5 -8 -6 -17 -3 -11 4 -13 8 -5 11 9 3 10 8 2 17 -24 29 197 -11
233 -43 9 -8 17 -10 17 -5 0 23 -146 73 -212 73 -25 0 -37 4 -33 11 10 16 12
69 3 69 -4 0 -8 7 -8 15 0 9 6 12 15 9 10 -4 15 0 15 11 0 9 4 14 9 11 5 -3
46 -8 92 -10 63 -3 74 -2 44 4 -22 5 -61 9 -87 9 -45 1 -61 12 -38 26 6 3 10
17 10 30 0 13 5 27 10 30 6 3 10 15 10 25 0 14 5 18 18 13 16 -7 16 -6 0 10
-10 11 -15 25 -11 35 6 16 6 16 -10 0 -9 -9 -17 -20 -17 -25 0 -23 -44 -153
-52 -153 -5 0 -7 8 -4 18 3 9 6 38 7 65 1 26 7 47 13 47 6 0 5 5 -2 12 -7 7
-12 21 -12 32 -1 17 -4 15 -14 -9 l-13 -30 -7 30 c-4 17 -10 46 -12 65 -8 62
-9 66 -30 92 -19 24 -26 25 -118 27 -73 2 -101 -1 -107 -11 -7 -10 -9 -10 -9
0 0 6 -8 12 -17 12 -13 0 -12 -5 8 -26 23 -25 23 -26 5 -39 -12 -9 -17 -21
-13 -35 3 -11 1 -17 -4 -14 -5 3 -23 -8 -39 -25 -32 -32 -41 -28 -42 19 -1 17
-5 27 -11 23 -6 -4 -8 4 -5 20 3 17 0 28 -9 31 -8 3 -13 14 -11 23 3 17 -27
18 -537 21 l-540 2 40 -36z m1230 -36 l16 -33 -20 25 c-20 24 -26 40 -16 40 2
0 12 -15 20 -32z m45 12 c0 -5 -2 -10 -4 -10 -3 0 -8 5 -11 10 -3 6 -1 10 4
10 6 0 11 -4 11 -10z m-55 -60 c-3 -6 -1 -10 4 -10 17 0 13 -14 -9 -28 -19
-12 -20 -10 -20 40 0 50 1 52 16 30 8 -12 12 -27 9 -32z m-50 -51 c-4 -5 -6
-31 -7 -59 0 -56 -7 -62 -25 -23 -10 20 -10 30 -1 40 6 7 8 16 5 20 -10 9 13
44 24 38 5 -4 7 -11 4 -16z m51 -17 c0 -10 -6 -24 -13 -31 -10 -9 -13 -8 -13
7 0 10 5 23 12 30 15 15 14 15 14 -6z m155 -15 c-10 -9 -11 -8 -5 6 3 10 9 15
12 12 3 -3 0 -11 -7 -18z m-1113 -34 c5 -10 13 -40 17 -68 4 -27 12 -59 18
-70 9 -18 9 -19 -8 -5 -23 19 -74 130 -68 147 7 19 31 16 41 -4z m999 -13 c1
-10 -4 -24 -12 -30 -11 -9 -12 -7 -8 12 4 18 3 20 -6 8 -9 -13 -11 -12 -11 6
0 11 3 23 6 27 11 10 30 -3 31 -23z m109 -2 c-11 -15 -16 -18 -16 -7 0 16 21
42 28 34 2 -2 -3 -14 -12 -27z m-991 -36 c-3 -8 -5 -21 -5 -30 0 -14 -4 -13
-22 5 -19 20 -20 25 -9 50 12 27 13 27 27 8 8 -11 12 -26 9 -33z m836 3 c5 4
9 -2 9 -12 0 -16 -2 -15 -21 4 -16 15 -19 27 -13 40 7 15 8 14 12 -10 2 -15 8
-25 13 -22z m-865 -60 c11 -21 7 -48 -6 -40 -4 3 -13 18 -18 35 -13 35 5 38
24 5z m876 -10 c-7 -36 -19 -39 -19 -5 0 17 6 30 12 30 8 0 10 -10 7 -25z
m-745 -57 c-3 -8 -6 -5 -6 6 -1 11 2 17 5 13 3 -3 4 -12 1 -19z m33 -16 c0 -5
-7 -17 -16 -28 -8 -10 -14 -14 -11 -9 2 6 7 18 10 28 7 17 17 23 17 9z m-127
-88 c-7 -18 -16 -10 -20 18 -3 17 -1 19 11 9 8 -7 12 -19 9 -27z m88 -26 c1
-16 3 -18 6 -6 2 9 11 19 20 22 11 4 14 2 9 -9 -3 -8 -1 -15 4 -15 6 0 10 5
10 10 0 6 5 10 10 10 6 0 8 -12 6 -27 -5 -27 -5 -27 11 -8 14 19 15 17 9 -25
-5 -41 -5 -43 8 -21 21 38 25 11 7 -48 -17 -57 -38 -78 -66 -67 -13 5 -16 13
-11 34 4 17 3 22 -2 13 -11 -15 -24 -1 -19 21 2 7 2 10 0 6 -9 -15 -23 -8 -23
11 0 11 -5 21 -11 23 -8 3 -8 14 0 43 13 48 5 60 -10 16 -6 -18 -14 -30 -17
-27 -2 3 1 19 8 36 15 36 49 42 51 8z m128 -140 c-18 -32 -24 -1 -8 38 12 27
13 27 16 7 3 -12 -1 -32 -8 -45z m929 46 c-14 -15 -19 -15 -37 -2 -20 14 -19
15 16 16 34 1 35 0 21 -14z m-888 -19 c0 -8 -4 -15 -10 -15 -5 0 -7 7 -4 15 4
8 8 15 10 15 2 0 4 -7 4 -15z m1044 -21 c9 -8 16 -20 16 -26 0 -6 -9 -1 -19
11 -12 14 -25 20 -32 15 -8 -4 -9 -3 -5 4 10 16 22 15 40 -4z m-1008 -36 c-9
-81 -47 -188 -66 -188 -15 0 -13 12 21 115 29 89 50 124 45 73z m39 -42 c-6
-38 -13 -63 -31 -111 -4 -11 -6 -25 -5 -31 1 -7 -6 -15 -16 -18 -13 -6 -14 -9
-4 -15 10 -7 10 -17 1 -52 -13 -48 -26 -69 -44 -69 -6 0 -4 5 4 10 9 6 15 26
16 53 1 23 14 92 28 152 35 141 34 137 47 130 6 -4 8 -23 4 -49z m813 33 c-7
-5 -19 -9 -27 -9 -11 0 -11 3 -1 14 6 8 18 12 27 9 12 -5 12 -7 1 -14z m-922
-94 c-18 -52 -26 -65 -31 -52 -8 19 20 122 39 146 21 28 18 -21 -8 -94z m155
66 c7 11 9 11 9 -3 0 -9 -5 -20 -11 -23 -6 -4 -8 -13 -5 -21 8 -21 -4 -43 -20
-37 -17 6 -18 24 -1 77 10 34 13 37 15 17 3 -19 6 -21 13 -10z m869 25 c0 -11
-19 -15 -25 -6 -3 5 1 10 9 10 9 0 16 -2 16 -4z m-820 -83 c0 -17 -4 -21 -17
-16 -16 6 -16 5 -4 -10 15 -19 9 -33 -9 -22 -11 7 -6 66 6 87 9 14 24 -11 24
-39z m735 22 c-22 -14 -44 -25 -49 -25 -13 0 -3 9 36 30 49 28 60 23 13 -5z
m128 -29 c40 -21 63 -43 54 -52 -3 -3 -14 3 -25 14 -11 11 -36 26 -55 33 -21
7 -40 23 -47 38 l-12 26 24 -20 c12 -11 40 -29 61 -39z m-1109 19 c-4 -8 -10
-15 -15 -15 -4 0 -6 7 -3 15 4 8 10 15 15 15 4 0 6 -7 3 -15z m903 -21 c-3 -3
-12 -4 -19 -1 -8 3 -5 6 6 6 11 1 17 -2 13 -5z m283 -39 c0 -5 -5 -3 -10 5 -5
8 -10 20 -10 25 0 6 5 3 10 -5 5 -8 10 -19 10 -25z m-900 21 c0 -11 -19 -15
-25 -6 -3 5 1 10 9 10 9 0 16 -2 16 -4z m-127 -136 c-8 -57 -24 -91 -42 -88
-21 4 -21 5 9 122 l25 100 7 -50 c3 -27 4 -65 1 -84z m942 112 c-3 -3 -11 0
-18 7 -9 10 -8 11 6 5 10 -3 15 -9 12 -12z m70 -82 c3 -5 -21 4 -54 20 -33 17
-62 34 -65 38 -2 4 22 -5 54 -21 33 -15 62 -32 65 -37z m15 50 c0 -13 -5 -18
-15 -14 -16 7 -19 17 -8 27 12 13 23 7 23 -13z m-1200 -54 c-22 -20 -22 -20
-15 -1 4 11 10 28 13 39 5 17 6 17 15 1 7 -13 4 -22 -13 -39z m237 -7 c-3 -27
-11 -66 -18 -88 -10 -35 -14 -39 -30 -30 -23 12 -23 25 -5 81 8 24 17 55 20
70 5 20 11 26 22 21 13 -5 15 -16 11 -54z m53 42 c0 -12 -20 -25 -27 -18 -7 7
6 27 18 27 5 0 9 -4 9 -9z m647 -27 c-3 -3 -12 -4 -19 -1 -8 3 -5 6 6 6 11 1
17 -2 13 -5z m-641 -22 c-2 -9 -7 -36 -11 -59 -5 -30 -12 -44 -27 -48 -21 -7
-41 5 -20 12 6 3 9 9 6 15 -3 5 -1 29 6 52 8 30 17 42 31 43 14 1 19 -3 15
-15z m64 -2 c0 -11 -4 -20 -10 -20 -5 0 -7 -6 -4 -13 2 -7 -7 -24 -21 -37
l-26 -25 6 50 c9 61 11 65 36 65 12 0 19 -7 19 -20z m735 -29 c-6 -5 -25 10
-25 20 0 5 6 4 14 -3 8 -7 12 -15 11 -17z m135 19 c0 -5 -2 -10 -4 -10 -3 0
-8 5 -11 10 -3 6 -1 10 4 10 6 0 11 -4 11 -10z m-93 -26 c-3 -3 -12 -4 -19 -1
-8 3 -5 6 6 6 11 1 17 -2 13 -5z m-1240 -118 c-10 -19 -11 -20 -15 -3 -2 10
-1 26 3 35 5 14 8 14 15 2 5 -8 4 -22 -3 -34z m37 -21 c9 -23 -7 -56 -22 -46
-9 5 -11 17 -6 34 7 30 19 35 28 12z m1266 -10 c0 -2 -13 -11 -30 -20 -16 -9
-30 -12 -30 -7 0 5 10 14 23 20 25 12 37 14 37 7z m-1223 -46 c2 -8 -1 -20 -6
-28 -8 -12 -12 -12 -25 -2 -12 10 -13 18 -5 33 11 21 33 20 36 -3z m908 -19
c3 -5 1 -10 -4 -10 -6 0 -11 5 -11 10 0 6 2 10 4 10 3 0 8 -4 11 -10z m-885
-21 c-7 -11 -14 -19 -16 -16 -7 7 7 37 17 37 6 0 5 -9 -1 -21z m26 -15 c-4 -9
-9 -15 -11 -12 -3 3 -3 13 1 22 4 9 9 15 11 12 3 -3 3 -13 -1 -22z m61 -4 c1
-15 -4 -20 -23 -20 -26 0 -31 9 -12 28 18 18 34 14 35 -8z m83 -4 c0 -2 -9 -6
-20 -9 -11 -3 -20 -1 -20 4 0 5 9 9 20 9 11 0 20 -2 20 -4z m1160 -140 c143
-38 193 -57 169 -63 -8 -2 -73 14 -143 37 -70 22 -133 40 -141 40 -8 0 -17 5
-20 10 -9 14 -3 13 135 -24z"/>
<path d="M3357 3273 c-4 -3 -7 -13 -7 -22 1 -13 3 -13 11 2 11 19 8 33 -4 20z"/>
<path d="M3401 3184 c0 -11 3 -14 6 -6 3 7 2 16 -1 19 -3 4 -6 -2 -5 -13z"/>
<path d="M4965 3830 c-3 -6 1 -7 9 -4 18 7 21 14 7 14 -6 0 -13 -4 -16 -10z"/>
<path d="M3990 3809 c0 -5 5 -7 10 -4 6 3 10 8 10 11 0 2 -4 4 -10 4 -5 0 -10
-5 -10 -11z"/>
<path d="M4331 3728 c-11 -29 -9 -31 20 -19 19 8 20 10 5 10 -12 1 -16 6 -12
16 3 8 3 15 0 15 -2 0 -8 -10 -13 -22z"/>
<path d="M1595 3730 c-3 -6 1 -7 9 -4 18 7 21 14 7 14 -6 0 -13 -4 -16 -10z"/>
<path d="M1548 3723 c7 -3 16 -2 19 1 4 3 -2 6 -13 5 -11 0 -14 -3 -6 -6z"/>
<path d="M4478 3723 c7 -3 16 -2 19 1 4 3 -2 6 -13 5 -11 0 -14 -3 -6 -6z"/>
<path d="M4420 3703 c0 -11 3 -14 8 -7 4 6 14 14 22 17 10 4 8 6 -7 6 -16 1
-23 -5 -23 -16z"/>
<path d="M4468 3613 c6 -2 18 -2 25 0 6 3 1 5 -13 5 -14 0 -19 -2 -12 -5z"/>
<path d="M4468 3523 c7 -3 16 -2 19 1 4 3 -2 6 -13 5 -11 0 -14 -3 -6 -6z"/>
<path d="M4392 3404 c2 -12 16 -17 50 -18 53 -2 54 2 0 21 -48 17 -54 16 -50
-3z"/>
<path d="M4601 3364 c0 -11 3 -14 6 -6 3 7 2 16 -1 19 -3 4 -6 -2 -5 -13z"/>
<path d="M4550 3360 c8 -5 20 -10 25 -10 6 0 3 5 -5 10 -8 5 -19 10 -25 10 -5
0 -3 -5 5 -10z"/>
<path d="M4591 3324 c0 -11 3 -14 6 -6 3 7 2 16 -1 19 -3 4 -6 -2 -5 -13z"/>
<path d="M595 3292 c6 -4 10 -34 10 -67 0 -33 4 -118 9 -188 7 -105 11 -130
25 -134 23 -9 75 -53 62 -53 -6 0 -11 -4 -11 -10 0 -5 10 -10 23 -10 12 0 40
-6 61 -14 37 -13 41 -12 57 8 19 23 17 24 34 -29 3 -11 -4 -15 -31 -15 -23 0
-33 -4 -29 -11 9 -13 107 -1 117 15 12 18 9 26 -8 26 -9 0 -31 15 -50 34 -33
33 -44 69 -24 81 6 4 8 11 5 16 -4 5 -1 9 4 9 6 0 11 -6 11 -12 1 -17 31 -52
56 -66 18 -9 23 -8 32 11 23 48 42 184 23 173 -5 -3 -11 1 -15 9 -7 19 -50 19
-66 0 -31 -37 -231 10 -249 59 -20 54 -20 101 0 125 11 13 23 20 27 16 4 -4 1
-10 -5 -12 -24 -9 -13 -22 35 -45 41 -20 65 -23 188 -24 78 -1 146 -4 152 -8
6 -3 13 -2 17 4 3 5 -1 10 -10 10 -9 0 -13 5 -10 10 9 15 35 12 35 -4 0 -12
18 -14 105 -11 l105 4 1 -42 c1 -23 1 -48 0 -54 -1 -9 14 -13 49 -13 l50 0 0
34 c0 19 5 38 11 41 22 14 30 57 14 75 -8 9 -15 22 -15 28 0 9 -85 12 -332 12
-262 0 -345 3 -388 15 -60 16 -91 19 -75 7z m785 -58 c0 -17 -22 -14 -28 4 -2
7 3 12 12 12 9 0 16 -7 16 -16z m-625 -24 c3 -5 1 -10 -4 -10 -6 0 -11 5 -11
10 0 6 2 10 4 10 3 0 8 -4 11 -10z m162 -166 c-3 -3 -12 -4 -19 -1 -8 3 -5 6
6 6 11 1 17 -2 13 -5z"/>
<path d="M4442 3257 c16 -13 37 -23 47 -23 26 0 18 11 -21 30 -45 23 -58 19
-26 -7z"/>
<path d="M3206 3223 c-6 -14 -5 -15 5 -6 7 7 10 15 7 18 -3 3 -9 -2 -12 -12z"/>
<path d="M1150 3079 c-22 -6 -20 -7 13 -8 38 -1 47 3 25 11 -7 3 -24 1 -38 -3z"/>
<path d="M1730 3058 c-46 -57 -54 -73 -19 -38 45 45 64 70 53 69 -5 0 -20 -14
-34 -31z"/>
<path d="M3161 3014 c-12 -31 -20 -59 -18 -61 2 -2 14 22 26 53 12 31 20 59
18 61 -2 2 -14 -22 -26 -53z"/>
<path d="M1114 2953 c2 -10 7 -28 11 -40 9 -33 31 -28 39 8 7 39 1 49 -30 49
-19 0 -24 -4 -20 -17z"/>
<path d="M1137 2799 c7 -7 15 -10 18 -7 3 3 -2 9 -12 12 -14 6 -15 5 -6 -5z"/>
<path d="M675 2769 c-38 -4 -169 -15 -290 -24 -121 -9 -256 -20 -300 -23 l-80
-7 -3 -35 c-3 -40 -17 -36 158 -40 93 -2 374 25 315 30 -28 2 -27 3 10 11 52
10 128 11 121 1 -3 -5 13 -13 35 -19 35 -9 41 -8 50 9 8 15 14 17 22 9 17 -17
40 -14 33 5 -4 11 -2 15 8 11 10 -4 13 1 10 16 -2 12 -2 16 2 10 9 -20 24 -15
24 8 0 19 -26 50 -40 47 -3 0 -36 -4 -75 -9z"/>
<path d="M805 2717 c8 -40 26 -87 34 -89 33 -8 61 -3 62 11 0 9 1 36 2 61 l2
45 -53 2 -53 1 6 -31z"/>
<path d="M773 2675 c-9 -24 1 -27 15 -5 8 13 8 20 2 20 -6 0 -13 -7 -17 -15z"/>
<path d="M5101 2643 c-18 -65 -51 -234 -51 -258 0 -14 7 -25 20 -28 11 -3 20
-1 20 4 0 5 -5 9 -12 9 -9 0 -8 3 1 13 11 10 14 10 18 0 15 -42 22 6 22 142
-1 85 -2 155 -5 155 -2 0 -8 -17 -13 -37z"/>
<path d="M4640 2661 c0 -5 9 -7 20 -4 11 3 20 7 20 9 0 2 -9 4 -20 4 -11 0
-20 -4 -20 -9z"/>
<path d="M4580 2639 c-22 -18 -22 -19 -3 -10 12 6 25 16 28 21 9 15 3 12 -25
-11z"/>
<path d="M2480 2611 c0 -6 4 -13 10 -16 6 -3 7 1 4 9 -7 18 -14 21 -14 7z"/>
<path d="M4860 2616 c0 -2 7 -9 15 -16 12 -10 15 -10 15 4 0 9 -7 16 -15 16
-8 0 -15 -2 -15 -4z"/>
<path d="M771 2593 c13 -15 12 -15 -8 -5 -32 18 -39 14 -14 -7 l22 -19 -28
-10 -28 -10 25 -1 c14 -1 39 3 56 8 41 12 68 -4 39 -21 -11 -7 -22 -13 -25
-14 -6 -1 -43 -16 -52 -21 -3 -2 -13 4 -21 12 -14 13 -17 13 -33 -2 -16 -16
-17 -16 -12 13 4 30 4 30 -37 24 -33 -4 -41 -9 -43 -30 -2 -14 -8 -29 -13 -34
-5 -6 -9 -15 -9 -20 0 -6 4 -5 9 2 6 10 10 3 15 -21 7 -40 22 -48 78 -43 21 2
39 -2 42 -8 3 -6 2 4 -1 22 l-5 32 43 0 c24 0 53 -7 63 -15 20 -15 101 -20
144 -9 l23 7 -24 26 c-14 14 -35 47 -47 74 -20 41 -26 47 -54 47 -17 0 -48 9
-69 20 -45 24 -54 25 -36 3z"/>
<path d="M2536 2597 c3 -10 9 -15 12 -12 3 3 0 11 -7 18 -10 9 -11 8 -5 -6z"/>
<path d="M727 2569 c7 -7 15 -10 18 -7 3 3 -2 9 -12 12 -14 6 -15 5 -6 -5z"/>
<path d="M2501 2575 c0 -5 6 -21 14 -35 8 -14 14 -20 14 -15 0 6 -6 21 -14 35
-8 14 -14 21 -14 15z"/>
<path d="M2577 2515 c15 -30 29 -53 31 -51 4 5 -46 106 -53 106 -3 0 7 -25 22
-55z"/>
<path d="M2600 2550 c6 -11 13 -20 16 -20 2 0 0 9 -6 20 -6 11 -13 20 -16 20
-2 0 0 -9 6 -20z"/>
<path d="M3045 2549 c-4 -6 -5 -12 -2 -15 2 -3 7 2 10 11 7 17 1 20 -8 4z"/>
<path d="M1570 2511 c0 -11 4 -22 9 -25 4 -3 6 6 3 19 -5 30 -12 33 -12 6z"/>
<path d="M970 2510 c0 -4 9 -19 21 -34 23 -29 73 -38 62 -11 -6 17 -83 58 -83
45z"/>
<path d="M4370 2496 c0 -8 7 -16 15 -20 13 -4 14 -2 5 14 -13 23 -20 26 -20 6z"/>
<path d="M2540 2491 c0 -6 4 -13 10 -16 6 -3 7 1 4 9 -7 18 -14 21 -14 7z"/>
<path d="M1612 2450 c0 -19 3 -57 8 -85 l7 -50 1 60 c0 33 -4 71 -8 85 -7 23
-8 22 -8 -10z"/>
<path d="M1583 2410 c0 -36 2 -50 4 -32 2 17 2 47 0 65 -2 17 -4 3 -4 -33z"/>
<path d="M3005 2459 c-4 -6 -5 -12 -2 -15 2 -3 7 2 10 11 7 17 1 20 -8 4z"/>
<path d="M4033 2415 c0 -22 2 -30 4 -17 2 12 2 30 0 40 -3 9 -5 -1 -4 -23z"/>
<path d="M2570 2439 c0 -3 19 -41 43 -85 23 -44 58 -110 77 -147 19 -37 39
-67 43 -67 5 0 0 15 -11 33 -10 17 -43 77 -72 132 -53 99 -80 145 -80 134z"/>
<path d="M3016 2403 c-6 -14 -5 -15 5 -6 7 7 10 15 7 18 -3 3 -9 -2 -12 -12z"/>
<path d="M3232 2395 c-17 -37 -14 -45 4 -12 9 16 14 31 11 33 -2 2 -9 -7 -15
-21z"/>
<path d="M792 2403 c-38 -5 -47 -19 -33 -55 9 -24 11 -24 110 -22 100 3 126 8
117 23 -3 4 -34 3 -70 -3 -37 -5 -69 -7 -72 -4 -3 3 -6 20 -6 37 -1 17 -4 30
-7 29 -3 0 -21 -3 -39 -5z"/>
<path d="M2655 2360 c14 -27 28 -50 30 -50 3 0 -6 23 -20 50 -14 28 -28 50
-30 50 -3 0 6 -22 20 -50z"/>
<path d="M3126 2385 c-9 -26 -7 -32 5 -12 6 10 9 21 6 23 -2 3 -7 -2 -11 -11z"/>
<path d="M4311 2384 c0 -11 3 -14 6 -6 3 7 2 16 -1 19 -3 4 -6 -2 -5 -13z"/>
<path d="M3281 2363 c-10 -26 -10 -27 4 -9 8 11 15 23 15 28 0 15 -7 8 -19
-19z"/>
<path d="M4106 2355 c8 -50 14 -58 14 -19 0 16 -5 36 -11 44 -7 11 -8 4 -3
-25z"/>
<path d="M4271 2380 c0 -8 4 -24 9 -35 5 -13 9 -14 9 -5 0 8 -4 24 -9 35 -5
13 -9 14 -9 5z"/>
<path d="M1096 2369 c-28 -4 -53 -6 -58 -3 -4 3 -8 -2 -8 -11 0 -14 8 -15 48
-10 93 12 112 16 112 25 0 11 -24 11 -94 -1z"/>
<path d="M2992 2355 c-17 -37 -14 -45 4 -12 9 16 14 31 11 33 -2 2 -9 -7 -15
-21z"/>
<path d="M3090 2304 c-21 -49 -26 -71 -9 -41 16 27 40 87 35 87 -3 0 -14 -21
-26 -46z"/>
<path d="M4231 2334 c0 -11 3 -14 6 -6 3 7 2 16 -1 19 -3 4 -6 -2 -5 -13z"/>
<path d="M2780 2318 c0 -9 -6 -18 -12 -21 -7 -3 -3 -4 10 -4 24 1 26 5 12 27
-8 13 -10 13 -10 -2z"/>
<path d="M4918 2323 c7 -3 16 -2 19 1 4 3 -2 6 -13 5 -11 0 -14 -3 -6 -6z"/>
<path d="M4965 2310 c11 -5 27 -9 35 -9 9 0 8 4 -5 9 -11 5 -27 9 -35 9 -9 0
-8 -4 5 -9z"/>
<path d="M2960 2289 c-7 -11 -10 -23 -7 -25 2 -2 9 7 15 21 14 30 7 33 -8 4z"/>
<path d="M4242 2295 c0 -11 4 -31 8 -45 l8 -25 0 25 c0 14 -3 34 -8 45 l-9 20
1 -20z"/>
<path d="M2590 2294 c0 -5 18 -41 41 -79 51 -87 67 -126 61 -145 -2 -8 4 -4
13 9 17 22 17 24 1 33 -9 5 -16 13 -16 17 0 4 -22 45 -50 91 -27 46 -50 79
-50 74z"/>
<path d="M2690 2297 c0 -14 59 -117 63 -110 2 5 -11 33 -29 63 -19 30 -34 52
-34 47z"/>
<path d="M5035 2291 c11 -4 36 -11 55 -15 24 -4 29 -3 15 3 -11 4 -36 11 -55
15 -24 4 -29 3 -15 -3z"/>
<path d="M2970 2229 c-17 -33 -44 -85 -61 -116 -16 -30 -28 -57 -26 -59 5 -5
69 112 104 188 31 68 19 59 -17 -13z"/>
<path d="M4122 2250 c0 -14 2 -19 5 -12 2 6 2 18 0 25 -3 6 -5 1 -5 -13z"/>
<path d="M2745 2250 c3 -5 8 -10 11 -10 2 0 4 5 4 10 0 6 -5 10 -11 10 -5 0
-7 -4 -4 -10z"/>
<path d="M3016 2235 c-9 -26 -7 -32 5 -12 6 10 9 21 6 23 -2 3 -7 -2 -11 -11z"/>
<path d="M300 2231 c0 -5 5 -13 10 -16 6 -3 10 -2 10 4 0 5 -4 13 -10 16 -5 3
-10 2 -10 -4z"/>
<path d="M3055 2229 c-4 -6 -5 -12 -2 -15 2 -3 7 2 10 11 7 17 1 20 -8 4z"/>
<path d="M3100 2219 c-7 -11 -10 -23 -7 -25 2 -2 9 7 15 21 14 30 7 33 -8 4z"/>
<path d="M4190 2230 c0 -5 5 -10 11 -10 5 0 7 5 4 10 -3 6 -8 10 -11 10 -2 0
-4 -4 -4 -10z"/>
<path d="M4311 2214 c0 -11 3 -14 6 -6 3 7 2 16 -1 19 -3 4 -6 -2 -5 -13z"/>
<path d="M80 2207 c0 -7 11 -29 25 -49 14 -20 25 -44 25 -53 0 -28 30 -75 48
-75 10 0 23 -5 30 -12 7 -7 12 -8 12 -2 0 5 -18 28 -40 49 -22 21 -40 47 -40
57 0 18 -45 98 -55 98 -3 0 -5 -6 -5 -13z"/>
<path d="M2575 2199 c-4 -6 -5 -12 -2 -15 2 -3 7 2 10 11 7 17 1 20 -8 4z"/>
<path d="M2786 2163 c-6 -14 -5 -15 5 -6 7 7 10 15 7 18 -3 3 -9 -2 -12 -12z"/>
<path d="M2540 2140 c6 -11 13 -20 16 -20 2 0 0 9 -6 20 -6 11 -13 20 -16 20
-2 0 0 -9 6 -20z"/>
<path d="M3024 2070 c-22 -44 -37 -77 -32 -74 10 7 81 145 76 149 -2 2 -22
-32 -44 -75z"/>
<path d="M2722 2048 c-27 -51 -66 -123 -87 -160 -20 -38 -34 -68 -32 -68 6 0
103 171 146 258 48 95 29 74 -27 -30z"/>
<path d="M530 2116 c0 -2 8 -10 18 -17 15 -13 16 -12 3 4 -13 16 -21 21 -21
13z"/>
<path d="M2631 2108 c-2 -28 40 -91 52 -79 7 7 4 16 -11 29 -12 11 -19 22 -15
26 3 3 1 6 -5 6 -6 0 -13 8 -15 18 -4 15 -5 15 -6 0z"/>
<path d="M2985 2089 c-9 -17 -15 -33 -13 -35 3 -2 12 12 21 31 21 43 13 47 -8
4z"/>
<path d="M2486 2087 c3 -10 9 -15 12 -12 3 3 0 11 -7 18 -10 9 -11 8 -5 -6z"/>
<path d="M2579 2048 c7 -10 18 -15 23 -12 6 4 7 -2 3 -16 -6 -18 -4 -22 7 -17
25 9 14 -46 -16 -86 -16 -21 -23 -37 -17 -37 7 0 9 -5 6 -10 -3 -6 -31 16 -62
47 -34 36 -47 45 -34 26 12 -18 30 -37 39 -43 9 -5 13 -10 9 -10 -4 0 2 -10
13 -22 12 -13 16 -24 10 -26 -5 -2 -8 -8 -4 -13 10 -17 -6 -9 -41 22 -25 23
-33 26 -28 13 4 -11 15 -25 25 -32 10 -7 18 -19 18 -25 -1 -8 -5 -7 -13 3 -7
8 -25 26 -41 40 -28 24 -28 24 -17 3 6 -13 8 -23 4 -23 -4 0 3 -6 16 -13 14
-6 27 -19 29 -27 4 -12 1 -11 -15 3 -33 29 -38 19 -7 -15 23 -27 24 -29 3 -10
-14 12 -29 19 -33 15 -4 -5 -6 -1 -4 7 2 9 -4 14 -14 14 -10 -1 -16 1 -15 5 2
6 -7 11 -20 11 -5 0 10 -16 32 -36 32 -29 35 -35 16 -29 -15 5 -21 3 -17 -3 4
-6 -3 -8 -16 -5 -22 4 -23 4 -4 -11 11 -9 15 -16 9 -16 -6 0 -16 7 -23 15 -7
8 -19 15 -26 15 -8 0 -14 5 -14 11 0 6 -9 9 -19 6 -15 -3 -18 -1 -14 11 4 10
2 13 -5 8 -20 -12 -13 -32 16 -43 l27 -11 -25 -1 -25 -2 25 -14 c21 -12 22
-14 5 -12 -11 2 -30 8 -42 15 -15 8 -22 9 -25 1 -2 -7 -17 0 -34 15 -17 14
-34 23 -38 19 -11 -12 -6 -22 15 -28 17 -6 19 -9 8 -17 -11 -7 -11 -11 -1 -15
6 -2 10 -9 6 -14 -3 -5 2 -9 11 -9 11 0 15 5 11 15 -4 12 -2 13 13 3 27 -17 4
-39 -27 -27 -31 12 -45 11 -36 -2 3 -6 -9 -3 -27 7 -19 10 -40 17 -48 15 -8
-1 -10 2 -5 10 5 8 3 10 -6 4 -10 -6 -9 -11 5 -22 11 -7 25 -13 32 -13 14 0
16 -9 5 -26 -5 -8 -21 -5 -54 11 -36 18 -45 19 -40 7 3 -10 1 -13 -6 -8 -6 4
-21 2 -33 -5 -17 -8 -23 -8 -29 2 -5 7 -16 14 -24 15 -9 1 -13 -2 -10 -8 3 -5
8 -7 10 -5 3 2 19 -10 37 -28 36 -36 170 -95 216 -95 16 0 33 -5 37 -11 5 -8
-9 -9 -47 -4 -68 8 -129 26 -129 36 0 5 -8 6 -17 2 -10 -3 -15 -2 -10 2 4 5
-7 14 -25 20 -18 6 -32 16 -31 23 2 6 -4 9 -12 6 -9 -4 -22 -1 -30 6 -9 7 -17
11 -20 9 -9 -10 113 -80 164 -95 31 -9 65 -20 76 -24 17 -8 16 -9 -8 -9 -16
-1 -37 4 -49 10 -11 6 -22 9 -24 6 -3 -2 10 -12 28 -20 18 -9 27 -17 20 -17
-7 0 -22 5 -34 11 -38 20 -29 1 21 -48 46 -45 169 -124 216 -138 11 -4 7 1
-10 11 -52 29 -135 85 -135 91 0 3 6 1 13 -5 24 -19 152 -66 177 -64 17 1 21
-1 12 -7 -9 -6 12 -15 65 -29 104 -28 184 -39 391 -52 95 -6 214 -15 265 -19
220 -21 417 12 553 92 33 20 67 43 74 52 11 13 6 12 -21 -3 -37 -22 -116 -42
-89 -23 8 6 25 11 38 11 12 0 22 5 22 10 0 6 12 15 28 21 33 14 13 24 -26 14
-15 -5 -47 -9 -72 -10 -25 -1 -93 -9 -151 -18 -98 -15 -312 -17 -327 -2 -3 3
5 5 17 5 51 0 493 107 451 109 -13 1 -13 2 0 11 20 13 33 13 25 0 -4 -6 1 -7
11 -3 11 4 13 8 6 11 -7 2 -10 8 -6 13 9 15 -4 11 -44 -14 -37 -23 -156 -56
-377 -103 -161 -34 -185 -38 -185 -27 0 5 34 15 75 22 153 25 397 106 373 124
-8 5 -2 6 17 3 20 -5 25 -4 16 3 -11 7 -10 10 6 15 11 4 29 16 39 28 l19 22
-25 -17 c-95 -65 -287 -135 -475 -172 -44 -8 -93 -18 -110 -21 -19 -4 -26 -3
-20 3 6 5 37 16 70 23 58 12 189 51 230 69 78 33 115 52 115 60 0 5 21 23 48
40 26 17 43 31 39 31 -4 0 -34 -17 -65 -39 -103 -70 -242 -122 -429 -161 -129
-27 -149 -24 -41 5 49 14 107 33 130 43 24 11 77 32 118 47 49 19 88 42 115
68 42 41 35 40 -30 -5 -56 -38 -251 -114 -369 -143 -54 -14 -104 -25 -109 -25
-25 0 7 11 114 39 117 31 224 73 212 85 -3 3 0 6 9 6 19 0 102 59 94 67 -3 4
1 15 11 25 9 10 12 18 8 18 -4 0 -23 -18 -42 -39 -21 -25 -50 -45 -80 -55 -67
-23 -81 -21 -55 7 34 36 26 44 -10 10 -18 -17 -51 -36 -73 -42 -52 -14 -55
-14 -48 5 3 10 -4 6 -20 -9 -15 -13 -52 -30 -84 -37 -32 -7 -62 -17 -68 -20
-5 -4 -26 -10 -45 -14 -19 -3 -46 -9 -60 -12 -44 -10 -190 -24 -190 -19 0 2
36 28 79 59 44 30 83 61 87 68 5 7 -5 2 -21 -10 -17 -12 -41 -30 -55 -39 -14
-9 -43 -28 -65 -43 -44 -30 -101 -45 -110 -30 -3 6 1 10 10 10 14 0 92 37 105
50 3 3 25 19 49 35 80 54 151 127 220 224 68 95 96 141 87 141 -2 0 -15 -17
-27 -37 -58 -96 -213 -282 -225 -270 -4 4 5 20 19 35 30 31 37 52 10 31 -10
-8 0 10 21 40 49 69 160 257 143 241 -10 -9 -57 -80 -57 -86 0 -8 -121 -184
-126 -184 -7 0 15 39 47 87 16 23 29 44 29 47 0 3 16 32 35 65 19 32 35 63 35
68 0 4 -22 -28 -48 -72 -81 -135 -98 -159 -152 -216 -37 -39 -43 -43 -21 -14
38 48 41 72 4 30 -20 -23 -22 -24 -10 -5 87 138 158 261 125 218 -7 -10 -43
-64 -81 -122 -37 -57 -91 -128 -120 -157 -28 -29 -52 -56 -52 -60 0 -5 -4 -12
-10 -17 -12 -11 -106 -35 -112 -28 -4 4 19 14 39 17 8 1 83 74 118 114 14 16
-1 6 -34 -23 -32 -29 -68 -57 -79 -64 -12 -6 7 15 42 47 89 83 167 195 260
373 33 64 40 87 31 95 -8 9 -10 7 -5 -8 4 -13 -3 -9 -24 15 -17 19 -31 30 -31
26 0 -5 -8 -2 -17 5 -16 13 -17 12 -4 -3z m-254 -366 c-3 -3 -11 0 -18 7 -9
10 -8 11 6 5 10 -3 15 -9 12 -12z m-211 -63 c24 -13 26 -17 12 -22 -11 -5 -15
-3 -10 5 5 7 0 9 -14 6 -15 -4 -19 -2 -15 8 3 8 0 14 -6 14 -6 0 -11 -4 -11
-9 0 -6 -9 -9 -20 -8 -19 1 -25 8 -15 18 9 10 51 3 79 -12z m61 -29 c3 -5 2
-10 -4 -10 -5 0 -13 5 -16 10 -3 6 -2 10 4 10 5 0 13 -4 16 -10z m89 -32 c64
-18 65 -28 3 -23 -62 4 -81 11 -72 26 8 12 19 11 69 -3z m236 -11 c0 -2 -12
-14 -27 -28 l-28 -24 24 28 c23 25 31 32 31 24z m100 -1 c0 -3 -15 -14 -32
-26 l-33 -22 28 26 c27 25 37 31 37 22z m-352 -103 c-10 -2 -26 -2 -35 0 -10
3 -2 5 17 5 19 0 27 -2 18 -5z m187 -81 c27 -6 53 -8 57 -6 14 9 98 -8 92 -18
-4 -6 2 -8 15 -3 29 9 117 -5 100 -16 -10 -6 -6 -9 14 -9 15 0 123 -9 240 -20
116 -12 292 -22 389 -23 97 -1 171 -5 164 -9 -41 -23 -406 -45 -406 -24 0 4
-16 6 -35 4 -19 -2 -35 0 -35 5 0 6 -19 7 -44 4 -25 -4 -46 -2 -48 3 -2 5 -69
10 -149 12 -81 2 -145 6 -142 11 2 4 -5 7 -17 7 -12 0 -18 -4 -15 -10 3 -5 1
-10 -4 -10 -6 0 -11 5 -11 10 0 6 -11 8 -25 4 -15 -4 -25 -2 -25 5 0 6 -8 10
-17 9 -45 -3 -74 2 -67 14 5 8 2 9 -11 5 -10 -5 -22 -2 -29 6 -6 8 -32 22 -58
31 -26 10 -50 21 -52 25 -6 9 54 5 119 -7z m364 -7 c14 -1 35 -6 45 -10 14 -6
17 -5 12 4 -6 8 3 10 31 6 69 -9 257 -25 330 -27 40 -2 73 -6 73 -9 0 -4 20
-4 45 -1 33 3 45 1 45 -8 0 -10 -39 -12 -192 -7 -106 4 -218 11 -248 16 -61
11 -147 20 -199 21 -29 0 -32 2 -21 15 8 10 21 13 33 9 11 -3 31 -7 46 -9z
m831 -10 c0 -2 -8 -4 -17 -4 -10 1 -29 -2 -43 -5 -21 -5 -20 -4 5 8 25 12 55
12 55 1z m-97 -12 c-7 -2 -19 -2 -25 0 -7 3 -2 5 12 5 14 0 19 -2 13 -5z
m-770 -10 c-7 -2 -21 -2 -30 0 -10 3 -4 5 12 5 17 0 24 -2 18 -5z m704 1 c-3
-3 -12 -4 -19 -1 -8 3 -5 6 6 6 11 1 17 -2 13 -5z m-40 -20 c-3 -3 -12 -4 -19
-1 -8 3 -5 6 6 6 11 1 17 -2 13 -5z m-684 -51 c-13 -2 -33 -2 -45 0 -13 2 -3
4 22 4 25 0 35 -2 23 -4z"/>
<path d="M2208 1553 c7 -3 16 -2 19 1 4 3 -2 6 -13 5 -11 0 -14 -3 -6 -6z"/>
<path d="M2895 2010 c-9 -16 -13 -30 -11 -30 3 0 12 14 21 30 9 17 13 30 11
30 -3 0 -12 -13 -21 -30z"/>
<path d="M4162 2015 c0 -16 2 -22 5 -12 2 9 2 23 0 30 -3 6 -5 -1 -5 -18z"/>
<path d="M4231 2014 c0 -11 3 -14 6 -6 3 7 2 16 -1 19 -3 4 -6 -2 -5 -13z"/>
<path d="M4292 2005 c0 -16 2 -22 5 -12 2 9 2 23 0 30 -3 6 -5 -1 -5 -18z"/>
<path d="M782 2008 c-32 -7 -42 -14 -40 -26 1 -9 -1 -23 -6 -30 -16 -26 9 -33
75 -23 35 6 67 11 72 11 4 0 7 7 7 16 0 10 -6 14 -17 11 -10 -3 -40 -8 -68
-12 -43 -6 -48 -5 -35 8 8 7 34 19 58 26 45 13 57 32 20 30 -13 -1 -42 -5 -66
-11z"/>
<path d="M2530 2016 c0 -2 8 -10 18 -17 15 -13 16 -12 3 4 -13 16 -21 21 -21
13z"/>
<path d="M3035 1979 c-4 -6 -5 -12 -2 -15 2 -3 7 2 10 11 7 17 1 20 -8 4z"/>
<path d="M4233 1955 c0 -22 2 -30 4 -17 2 12 2 30 0 40 -3 9 -5 -1 -4 -23z"/>
<path d="M588 1967 c-46 -10 -48 -12 -48 -46 0 -20 4 -63 10 -96 5 -33 11 -89
13 -125 3 -41 10 -67 18 -72 31 -15 150 -69 174 -78 24 -9 25 -8 19 18 -4 15
-15 37 -26 49 -14 15 -17 26 -11 38 7 12 3 24 -17 46 -22 23 -29 42 -34 96
-21 210 -9 189 -98 170z"/>
<path d="M2575 1960 c8 -25 7 -25 -13 -7 -13 12 -22 15 -27 7 -3 -5 -11 -7
-17 -4 -7 4 -8 2 -4 -5 6 -9 11 -9 22 0 11 9 15 8 20 -4 3 -9 14 -15 25 -14
23 2 23 6 3 32 -16 19 -16 19 -9 -5z"/>
<path d="M2966 1963 c-6 -14 -5 -15 5 -6 7 7 10 15 7 18 -3 3 -9 -2 -12 -12z"/>
<path d="M4368 1901 c-9 -43 -29 -108 -44 -142 -29 -68 -103 -168 -151 -207
-52 -43 -167 -106 -230 -127 -87 -28 -176 -114 -196 -188 -21 -74 -27 -126
-16 -132 16 -10 10 -36 -16 -67 -14 -16 -25 -35 -25 -41 0 -20 110 -119 126
-113 8 3 13 2 10 -3 -3 -5 2 -15 11 -22 15 -12 16 -12 8 1 -12 19 -15 60 -4
60 4 0 12 12 18 28 6 15 15 34 19 42 27 46 31 59 22 65 -14 9 -12 38 3 58 11
15 18 13 80 -23 77 -45 77 -45 77 -26 0 8 -16 24 -35 36 -19 12 -32 27 -29 32
4 7 2 8 -4 4 -6 -4 -33 8 -59 26 -43 30 -48 36 -45 67 2 22 0 31 -7 26 -7 -4
-7 3 1 20 7 15 17 24 25 21 7 -3 13 -1 13 4 0 6 18 10 40 10 29 0 40 -4 40
-15 0 -10 10 -15 31 -15 16 0 28 -4 24 -9 -8 -14 43 -61 66 -61 12 0 23 -8 26
-20 6 -22 18 -26 28 -10 12 19 38 11 32 -10 -9 -33 28 -24 75 18 49 44 129
152 122 164 -3 4 -1 8 3 8 9 0 24 47 43 135 15 73 19 107 25 234 3 63 10 120
16 128 9 10 8 13 -1 13 -7 0 -10 6 -7 14 6 14 -29 51 -74 80 l-26 16 -15 -79z"/>
<path d="M237 1906 c19 -33 55 -101 80 -149 42 -81 65 -109 79 -94 10 9 -160
295 -177 300 -12 3 -7 -12 18 -57z"/>
<path d="M2860 1950 c-6 -11 -8 -20 -6 -20 3 0 10 9 16 20 6 11 8 20 6 20 -3
0 -10 -9 -16 -20z"/>
<path d="M4163 1910 c0 -36 2 -50 4 -32 2 17 2 47 0 65 -2 17 -4 3 -4 -33z"/>
<path d="M2900 1940 c-6 -11 -8 -20 -6 -20 3 0 10 9 16 20 6 11 8 20 6 20 -3
0 -10 -9 -16 -20z"/>
<path d="M2987 1895 c-9 -19 -15 -35 -12 -35 7 0 37 61 33 66 -3 2 -12 -12
-21 -31z"/>
<path d="M813 1904 c-8 -20 8 -36 26 -25 15 10 8 41 -9 41 -6 0 -13 -7 -17
-16z"/>
<path d="M2685 1890 c-9 -16 -13 -30 -11 -30 3 0 12 14 21 30 9 17 13 30 11
30 -3 0 -12 -13 -21 -30z"/>
<path d="M2694 1853 c-21 -38 -57 -97 -82 -131 -24 -35 -41 -66 -38 -69 6 -7
104 144 140 215 38 75 24 64 -20 -15z"/>
<path d="M2870 1890 c-6 -11 -8 -20 -6 -20 3 0 10 9 16 20 6 11 8 20 6 20 -3
0 -10 -9 -16 -20z"/>
<path d="M4231 1894 c0 -11 3 -14 6 -6 3 7 2 16 -1 19 -3 4 -6 -2 -5 -13z"/>
<path d="M2490 1897 c0 -2 15 -16 33 -33 l32 -29 -29 33 c-28 30 -36 37 -36
29z"/>
<path d="M2812 1868 c-11 -18 -38 -61 -61 -96 -23 -35 -37 -61 -32 -58 10 6
89 124 110 164 18 34 6 26 -17 -10z"/>
<path d="M2860 1797 c-36 -55 -98 -135 -139 -179 -40 -43 -66 -75 -56 -72 27
11 156 166 214 259 30 47 52 87 50 89 -2 1 -33 -42 -69 -97z"/>
<path d="M3125 1879 c-4 -6 -5 -12 -2 -15 2 -3 7 2 10 11 7 17 1 20 -8 4z"/>
<path d="M3036 1863 c-6 -14 -5 -15 5 -6 7 7 10 15 7 18 -3 3 -9 -2 -12 -12z"/>
<path d="M2897 1763 c-35 -49 -93 -119 -128 -156 -75 -81 -195 -181 -207 -173
-5 3 -9 -1 -9 -8 0 -21 25 -8 82 39 117 100 199 190 289 318 68 96 50 83 -27
-20z"/>
<path d="M4061 1803 c-6 -27 -12 -54 -13 -60 -1 -7 -5 -13 -10 -13 -4 0 -8 -6
-8 -14 0 -8 -7 -17 -16 -20 -8 -3 -12 -10 -9 -16 7 -12 -19 -53 -28 -43 -11
10 -8 25 3 18 6 -3 10 3 10 15 0 12 7 35 16 51 8 17 13 33 11 35 -3 3 -20 -26
-38 -63 -41 -84 -44 -93 -26 -70 13 16 15 16 21 1 9 -23 27 -5 58 58 29 58 60
168 49 168 -4 0 -13 -21 -20 -47z"/>
<path d="M1390 1821 c-16 -30 4 -33 30 -6 23 25 23 25 2 25 -12 0 -26 -9 -32
-19z"/>
<path d="M3013 1828 c-15 -20 -25 -38 -20 -38 3 0 12 11 21 25 17 26 16 35 -1
13z"/>
<path d="M4152 1820 c0 -14 2 -19 5 -12 2 6 2 18 0 25 -3 6 -5 1 -5 -13z"/>
<path d="M2398 1778 c4 -16 2 -19 -8 -13 -9 5 -11 4 -6 -4 4 -6 12 -9 17 -6
12 8 12 32 0 39 -5 4 -7 -4 -3 -16z"/>
<path d="M2170 1782 c0 -12 19 -26 26 -19 2 2 -2 10 -11 17 -9 8 -15 8 -15 2z"/>
<path d="M3060 1775 c-7 -9 -11 -17 -9 -20 3 -2 10 5 17 15 14 24 10 26 -8 5z"/>
<path d="M3951 1774 c0 -11 3 -14 6 -6 3 7 2 16 -1 19 -3 4 -6 -2 -5 -13z"/>
<path d="M4130 1750 c-7 -22 -18 -40 -24 -40 -12 0 -40 -56 -39 -77 0 -7 -2
-11 -6 -10 -3 1 -30 -23 -59 -53 -30 -30 -51 -49 -47 -42 6 11 3 12 -14 3 -11
-7 -21 -14 -21 -17 0 -3 5 -2 10 1 6 3 10 4 10 1 0 -3 -16 -12 -35 -20 -19 -8
-34 -21 -33 -28 2 -7 -4 -13 -12 -13 -8 0 -21 -6 -28 -12 -7 -7 -20 -13 -28
-13 -8 0 -14 -4 -14 -9 0 -9 92 19 132 40 71 37 184 158 174 186 -3 8 -2 12 3
8 9 -5 57 123 49 131 -3 2 -11 -14 -18 -36z"/>
<path d="M820 1759 c0 -25 33 -22 38 4 2 12 -3 17 -17 17 -15 0 -21 -6 -21
-21z"/>
<path d="M2518 1700 c-31 -44 -55 -80 -52 -80 5 0 92 117 105 142 19 36 3 16
-53 -62z"/>
<path d="M2973 1768 c-15 -20 -25 -38 -20 -38 3 0 12 11 21 25 17 26 16 35 -1
13z"/>
<path d="M3119 1733 c-13 -16 -12 -17 4 -4 16 13 21 21 13 21 -2 0 -10 -8 -17
-17z"/>
<path d="M945 1731 c-27 -6 -30 -10 -29 -46 1 -57 14 -228 18 -232 2 -2 32 17
67 42 35 25 80 56 99 69 45 30 92 80 67 70 -10 -3 -22 -14 -26 -23 -5 -9 -24
-25 -43 -35 l-33 -19 33 35 c43 46 41 58 -11 58 -43 0 -43 1 -53 43 -10 46
-26 52 -89 38z m90 -151 c3 -5 2 -10 -4 -10 -5 0 -13 5 -16 10 -3 6 -2 10 4
10 5 0 13 -4 16 -10z"/>
<path d="M3019 1723 c-13 -16 -12 -17 4 -4 9 7 17 15 17 17 0 8 -8 3 -21 -13z"/>
<path d="M3291 1677 c-25 -28 -32 -41 -17 -27 26 23 71 80 64 80 -2 0 -23 -24
-47 -53z"/>
<path d="M2930 1713 c0 -5 -28 -37 -61 -73 -123 -132 -133 -144 -76 -90 77 73
162 170 148 170 -6 0 -11 -3 -11 -7z"/>
<path d="M3917 1713 c-4 -3 -7 -11 -7 -17 0 -6 5 -5 12 2 6 6 9 14 7 17 -3 3
-9 2 -12 -2z"/>
<path d="M2676 1668 c-14 -18 -23 -34 -20 -37 4 -5 27 21 45 52 16 28 2 20
-25 -15z"/>
<path d="M2971 1663 c-17 -21 -31 -42 -31 -48 0 -5 7 2 17 15 9 14 25 35 36
48 11 12 18 22 14 22 -3 0 -19 -17 -36 -37z"/>
<path d="M4157 1650 c-16 -16 -26 -34 -22 -40 3 -5 0 -7 -8 -5 -7 3 -19 -5
-27 -20 -15 -28 -33 -34 -23 -7 5 14 3 13 -10 -3 -9 -11 -16 -24 -17 -30 0 -5
5 -3 10 5 5 8 10 10 10 4 0 -17 -58 -74 -76 -74 -8 0 -12 -4 -9 -10 3 -5 1
-10 -6 -10 -7 0 -10 -3 -6 -6 8 -8 74 33 107 66 42 41 121 160 108 160 -2 0
-16 -13 -31 -30z"/>
<path d="M3885 1660 c-4 -6 -11 -8 -16 -5 -5 3 -6 -1 -3 -9 4 -9 -1 -18 -10
-22 -9 -3 -13 -10 -10 -15 3 -5 0 -9 -5 -9 -6 0 -11 -5 -11 -12 0 -16 31 14
53 51 16 27 18 47 2 21z"/>
<path d="M1904 1643 c16 -20 36 -23 36 -6 0 4 -3 3 -7 0 -3 -4 -16 1 -27 10
-21 18 -21 18 -2 -4z"/>
<path d="M3046 1644 c-5 -14 -4 -15 9 -4 17 14 19 20 6 20 -5 0 -12 -7 -15
-16z"/>
<path d="M3384 1638 l-19 -23 23 19 c12 11 22 21 22 23 0 8 -8 2 -26 -19z"/>
<path d="M3816 1633 c-6 -14 -5 -15 5 -6 7 7 10 15 7 18 -3 3 -9 -2 -12 -12z"/>
<path d="M3117 1610 c-15 -16 -23 -30 -19 -30 5 0 18 14 30 30 13 17 21 30 19
30 -2 0 -16 -13 -30 -30z"/>
<path d="M2994 1588 l-29 -33 33 29 c30 28 37 36 29 36 -2 0 -16 -15 -33 -32z"/>
<path d="M3956 1613 c-4 -5 -11 -8 -16 -8 -5 0 -32 -23 -62 -51 -29 -28 -63
-54 -76 -58 -12 -4 -19 -12 -16 -18 4 -7 2 -8 -5 -4 -6 4 -26 0 -44 -10 -17
-9 -50 -23 -72 -30 l-40 -14 47 4 c69 8 176 55 234 103 41 33 54 40 65 30 11
-10 11 -9 1 4 -9 12 -9 18 0 27 8 8 9 15 2 22 -6 6 -14 7 -18 3z m-24 -45 c-7
-7 -12 -8 -12 -2 0 14 12 26 19 19 2 -3 -1 -11 -7 -17z m-28 -23 c-4 -8 -11
-15 -16 -15 -6 0 -5 6 2 15 7 8 14 15 16 15 2 0 1 -7 -2 -15z"/>
<path d="M1924 1581 c7 -11 46 -35 46 -28 0 3 -12 12 -26 22 -15 9 -23 12 -20
6z"/>
<path d="M3758 1573 c0 -5 -1 -15 -2 -23 -1 -8 -12 -20 -24 -26 -26 -13 -50
-34 -39 -34 15 0 107 62 107 73 0 8 -4 7 -12 -1 -17 -17 -29 -15 -22 3 4 8 3
15 0 15 -3 0 -7 -3 -8 -7z"/>
<path d="M390 1546 c0 -8 -3 -21 -6 -30 -5 -14 -3 -14 26 0 17 9 30 17 28 19
-2 1 -13 8 -25 14 -19 10 -23 9 -23 -3z"/>
<path d="M3655 1539 c-16 -10 -25 -19 -20 -19 6 0 24 9 40 20 17 11 26 20 20
19 -5 0 -23 -9 -40 -20z"/>
<path d="M3708 1534 c-16 -8 -28 -17 -28 -19 0 -10 16 -4 40 15 30 23 25 25
-12 4z"/>
<path d="M176 1507 c-32 -17 -65 -41 -72 -52 -16 -25 -9 -52 76 -265 27 -69
95 -249 151 -400 55 -151 107 -285 115 -297 38 -61 131 -73 363 -47 129 13
175 15 194 7 17 -8 54 -66 126 -198 55 -103 101 -191 101 -197 0 -5 4 -6 10
-3 6 3 7 -1 4 -9 -4 -9 1 -18 10 -22 9 -3 14 -10 11 -14 -2 -4 36 -8 85 -9 68
-2 90 1 90 11 0 23 -36 110 -50 118 -7 4 -9 13 -6 19 4 6 -5 23 -19 37 -19 19
-25 34 -22 51 3 15 -1 27 -9 30 -8 3 -14 14 -14 25 0 17 -3 18 -15 8 -12 -10
-15 -10 -15 3 0 8 -9 17 -20 20 -11 3 -18 1 -15 -3 3 -4 -4 -6 -15 -3 -11 3
-17 9 -14 14 7 12 -33 6 -46 -7 -10 -10 6 -45 69 -157 19 -32 31 -60 28 -63
-5 -5 -41 58 -130 226 -85 162 -329 604 -338 615 -16 17 -9 23 44 41 67 22
122 50 167 84 20 16 60 32 95 40 33 7 78 21 100 31 l40 20 -45 -6 c-33 -5 -41
-3 -30 4 13 9 13 11 -2 11 -10 0 -18 -4 -18 -9 0 -10 -48 -2 -56 10 -3 5 2 23
10 41 8 18 13 44 12 58 -2 14 -4 30 -5 36 0 7 -17 19 -37 29 -31 15 -44 15
-105 4 -38 -7 -69 -14 -69 -15 0 -2 14 -26 30 -52 22 -36 30 -62 30 -96 0 -25
-5 -46 -10 -46 -6 0 -9 -3 -8 -7 3 -9 -33 -53 -43 -53 -3 0 -4 11 -1 25 2 14
0 25 -5 25 -5 0 -8 18 -6 39 1 26 -3 41 -12 45 -16 6 -27 -17 -19 -39 10 -25
-44 -18 -71 9 -27 27 -61 41 -89 37 -11 -2 -30 11 -46 31 -21 24 -31 30 -40
22 -30 -29 -90 18 -70 55 13 26 68 71 86 71 29 0 98 -41 171 -100 7 -6 26 -13
43 -16 16 -4 30 -10 30 -15 0 -5 4 -9 10 -9 22 0 -5 30 -34 38 -47 13 -89 56
-81 81 5 17 2 21 -15 21 -11 0 -23 6 -26 14 -5 12 -22 14 -90 9 -60 -3 -84 -1
-84 7 0 6 -5 8 -10 5 -6 -4 -18 -1 -27 7 -10 7 -14 8 -10 1 4 -6 4 -13 0 -15
-5 -1 -21 -29 -38 -62 -16 -32 -38 -64 -49 -71 -12 -9 -17 -21 -13 -34 3 -12
2 -19 -3 -16 -7 4 -12 -14 -24 -84 -3 -13 -14 -33 -26 -45 -21 -21 -21 -21
-36 -2 -8 11 -14 30 -14 43 0 23 -1 23 -26 7 -17 -11 -28 -14 -35 -7 -25 25
-38 253 -18 311 6 17 9 42 7 56 l-3 25 -59 -32z m1134 -1453 c12 -19 20 -37
18 -39 -2 -3 -15 13 -27 35 -28 50 -21 53 9 4z"/>
<path d="M2027 1519 c7 -7 15 -10 18 -7 3 3 -2 9 -12 12 -14 6 -15 5 -6 -5z"/>
<path d="M2380 1490 c-9 -6 -10 -10 -3 -10 6 0 15 5 18 10 8 12 4 12 -15 0z"/>
<path d="M3748 1493 c7 -3 16 -2 19 1 4 3 -2 6 -13 5 -11 0 -14 -3 -6 -6z"/>
<path d="M2706 1475 c-11 -8 -15 -15 -9 -15 6 0 16 7 23 15 16 19 11 19 -14 0z"/>
<path d="M3700 1470 c-9 -6 -10 -10 -3 -10 6 0 15 5 18 10 8 12 4 12 -15 0z"/>
<path d="M340 1429 c-12 -23 -20 -43 -18 -45 3 -2 14 17 26 41 27 56 20 60 -8
4z"/>
<path d="M1770 1462 c0 -7 -17 -31 -37 -54 -21 -22 -31 -38 -23 -35 8 4 23 10
32 13 17 6 43 72 33 83 -3 2 -5 -1 -5 -7z"/>
<path d="M4677 1443 c-9 -8 -287 -572 -287 -581 0 -4 48 -36 108 -71 59 -35
108 -65 110 -66 1 -1 -6 -17 -15 -36 -11 -22 -17 -53 -15 -86 1 -30 -3 -53 -8
-53 -11 0 -13 -52 -4 -88 10 -35 42 -35 154 2 144 47 173 52 190 30 19 -22 20
-122 3 -194 -20 -85 -17 -123 13 -154 15 -14 33 -26 40 -26 16 0 33 55 41 137
8 80 19 90 67 58 20 -14 39 -25 41 -25 3 0 5 24 5 54 0 50 -3 56 -30 73 -39
23 -38 36 3 29 l32 -6 -35 14 c-38 15 -109 54 -126 71 -6 5 -45 32 -87 59 -42
27 -77 57 -77 65 0 13 -2 13 -9 2 -6 -9 -11 -10 -15 -2 -4 6 -4 16 0 23 4 6 3
9 -2 6 -5 -3 -22 1 -39 9 l-30 14 28 -4 c31 -5 34 1 11 17 -12 9 -13 17 -5 39
6 15 15 27 20 27 5 0 9 10 9 23 2 77 10 118 26 136 13 15 16 28 11 53 -6 27
-5 31 6 21 7 -7 18 -13 24 -13 5 0 3 4 -5 10 -8 5 -12 11 -9 14 3 3 71 -26
152 -63 l147 -69 0 179 0 180 -47 20 c-27 11 -75 33 -108 49 -121 57 -276 130
-279 130 -1 0 -6 -3 -9 -7z m106 -840 c-7 -2 -19 -2 -25 0 -7 3 -2 5 12 5 14
0 19 -2 13 -5z"/>
<path d="M3480 1404 c-127 -24 -221 -46 -217 -50 2 -2 70 10 153 26 82 16 163
31 179 33 28 4 28 4 -5 5 -19 0 -69 -6 -110 -14z"/>
<path d="M3688 1403 c6 -2 18 -2 25 0 6 3 1 5 -13 5 -14 0 -19 -2 -12 -5z"/>
<path d="M307 1363 c-4 -3 -7 -16 -6 -27 0 -19 1 -19 10 3 10 24 8 36 -4 24z"/>
<path d="M2390 1270 c8 -5 20 -10 25 -10 6 0 3 5 -5 10 -8 5 -19 10 -25 10 -5
0 -3 -5 5 -10z"/>
<path d="M3605 1246 c-38 -18 -95 -40 -125 -49 -68 -21 -250 -34 -350 -25 -41
3 -166 13 -277 22 -110 8 -218 17 -240 20 -26 4 -21 1 17 -9 30 -8 118 -19
195 -25 77 -5 196 -15 265 -21 134 -12 246 -7 350 17 110 25 208 63 230 88 16
20 18 21 -65 -18z"/>
<path d="M2445 1250 c27 -12 43 -12 25 0 -8 5 -22 9 -30 9 -10 0 -8 -3 5 -9z"/>
<path d="M2548 1223 c7 -3 16 -2 19 1 4 3 -2 6 -13 5 -11 0 -14 -3 -6 -6z"/>
<path d="M3908 1188 c5 -5 16 -8 23 -6 8 3 3 7 -10 11 -17 4 -21 3 -13 -5z"/>
<path d="M3435 1154 c-33 -8 -127 -18 -210 -22 l-150 -9 125 -1 c119 -1 246
14 300 36 33 14 8 12 -65 -4z"/>
<path d="M2855 1150 c22 -4 81 -10 130 -13 73 -5 78 -4 30 2 -97 14 -207 21
-160 11z"/>
<path d="M1407 1079 c10 -17 24 -36 32 -42 8 -7 2 7 -14 31 -32 49 -45 57 -18
11z"/>
<path d="M3730 890 c-9 -17 -7 -26 10 -50 16 -22 20 -38 15 -59 -3 -16 -3 -45
0 -64 6 -29 13 -36 45 -46 46 -14 53 -14 45 -1 -4 6 -12 7 -18 4 -9 -5 -9 -4
0 6 7 8 8 21 4 34 -4 11 -7 39 -6 61 1 22 -3 46 -9 54 -6 8 8 2 32 -12 23 -15
42 -25 42 -23 0 4 -115 96 -137 109 -7 5 -16 -1 -23 -13z"/>
<path d="M1423 775 c-12 -14 -18 -25 -13 -25 5 0 12 5 15 10 4 6 11 8 16 5 5
-4 9 3 9 14 0 26 0 26 -27 -4z"/>
<path d="M3900 786 c0 -3 9 -10 20 -16 11 -6 20 -8 20 -6 0 3 -9 10 -20 16
-11 6 -20 8 -20 6z"/>
<path d="M1445 740 c-4 -6 -11 -7 -17 -4 -7 4 -8 2 -4 -4 4 -7 3 -12 -2 -12
-18 0 -34 -161 -26 -271 3 -60 10 -109 14 -109 4 0 28 16 53 35 40 30 67 43
67 31 0 -2 -22 -26 -50 -53 -42 -42 -50 -56 -50 -87 0 -21 4 -35 9 -32 10 7
34 -71 26 -84 -4 -6 -3 -25 1 -43 l8 -32 7 40 c5 30 6 20 5 -35 l-1 -75 263
-3 c144 -1 262 0 262 3 0 4 -18 30 -41 58 -152 196 -269 363 -269 387 0 8 -10
10 -25 8 -13 -3 -22 -1 -19 3 3 5 0 9 -6 9 -6 0 -8 4 -5 10 5 8 -36 74 -56 90
-4 3 -32 44 -63 93 -56 85 -69 97 -81 77z"/>
<path d="M3085 505 c-154 -29 -279 -68 -435 -137 -69 -31 -142 -61 -163 -68
-56 -18 -39 -22 20 -5 99 29 194 17 225 -30 4 -5 25 -30 46 -54 26 -28 51 -72
72 -127 28 -75 34 -84 57 -84 27 0 27 0 -3 123 -8 32 -14 87 -14 121 0 53 4
69 28 102 39 54 120 123 151 131 14 3 64 16 111 29 108 29 61 28 -95 -1z"/>
<path d="M4245 450 c-11 -17 -75 -42 -95 -37 -25 7 -26 1 -1 -13 15 -7 29 -5
60 12 22 12 42 27 45 35 6 15 0 18 -9 3z"/>
</g>
</svg>
